<svg width="11" height="11" fill="none" xmlns="http://www.w3.org/2000/svg"><path fill-rule="evenodd" clip-rule="evenodd" d="M10.981 5.49a5.49 5.49 0 1 0-10.98 0 5.49 5.49 0 0 0 10.98 0zM3.37 4.054c0-.269.086-.541.259-.817.172-.276.424-.504.755-.685.33-.18.716-.271 1.158-.271.41 0 .772.075 1.085.227.314.15.557.357.728.617.171.26.257.543.257.848 0 .24-.05.451-.147.632a1.934 1.934 0 0 1-.348.469c-.134.131-.375.353-.723.664a2.94 2.94 0 0 0-.231.23.938.938 0 0 0-.13.183.89.89 0 0 0-.065.166 6.373 6.373 0 0 0-.07.29c-.054.294-.222.441-.505.441a.516.516 0 0 1-.371-.144c-.1-.096-.15-.239-.15-.428 0-.238.036-.443.11-.617.073-.174.17-.327.292-.458a6.7 6.7 0 0 1 .492-.47c.181-.158.312-.277.393-.358.08-.08.148-.17.203-.269a.651.651 0 0 0 .083-.322.75.75 0 0 0-.252-.573c-.169-.156-.386-.233-.651-.233-.312 0-.54.078-.688.235-.147.157-.271.388-.373.694-.096.32-.278.479-.547.479a.538.538 0 0 1-.401-.168.512.512 0 0 1-.163-.362zm1.618 4.481c.129.112.28.168.452.168a.644.644 0 0 0 .44-.17.592.592 0 0 0 .192-.467.611.611 0 0 0-.183-.45.611.611 0 0 0-.45-.182.63.63 0 0 0-.644.632c0 .201.064.358.193.47z" fill="#B1B7C5" opacity=".738"/></svg>